#N canvas 499 524 450 300 10;
#X obj 68 261 outlet~;
#X obj 71 45 sel 53;
#X obj 71 23 inlet note;
#X obj 175 22 inlet velocity;
#N canvas 28 524 450 300 kick-synth 1;
#X obj 180 153 square-wave~;
#X obj 74 242 *~;
#X obj 74 264 outlet~;
#X obj 75 12 inlet;
#X obj 40 40 bng 15 250 50 0 empty empty empty 17 7 0 10 -262144 -1
-1;
#X obj 181 55 f 250;
#X floatatom 207 33 5 0 0 1 decay - -, f 5;
#N canvas 710 340 450 300 vol-env 0;
#X obj 98 109 vline~;
#X obj 98 131 *~;
#X msg 98 78 0.5 \, 1 5 \, 0.5 60 5 \, 0 \$1 65;
#X obj 98 52 inlet;
#X obj 98 153 outlet~;
#X connect 0 0 1 0;
#X connect 0 0 1 1;
#X connect 1 0 4 0;
#X connect 2 0 0 0;
#X connect 3 0 2 0;
#X restore 46 160 pd vol-env;
#N canvas 710 340 450 300 pitch-env 0;
#X obj 98 109 vline~;
#X obj 98 131 *~;
#X obj 98 52 inlet;
#X obj 98 233 outlet~;
#X msg 98 78 1 \, 0.5 5 \, 0 \$1 5;
#X obj 98 153 *~ 80;
#X obj 98 175 +~ 29;
#X text 143 161 Midi pitch \, from 109 down to 29;
#X obj 98 197 mtof~;
#X text 147 195 convert to frequency for the square wavenote the ~
tilda for audio rate mtof;
#X connect 0 0 1 0;
#X connect 0 0 1 1;
#X connect 1 0 5 0;
#X connect 2 0 4 0;
#X connect 4 0 0 0;
#X connect 5 0 6 0;
#X connect 6 0 8 0;
#X connect 8 0 3 0;
#X restore 180 90 pd pitch-env;
#X obj 180 124 *~ 1;
#X floatatom 262 91 5 0 0 1 pitch_scale - -, f 5;
#X obj 180 195 vcf~ 0.5;
#X obj 269 153 *~ 1.5;
#X floatatom 302 125 5 0 0 1 filter_scale - -, f 5;
#X obj 137 169 noise~;
#X floatatom 331 157 5 0 0 1 sine_scale - -, f 5;
#X obj 298 207 osc~;
#X obj 298 185 *~ 0.75;
#X obj 207 10 inlet;
#X obj 262 11 inlet;
#X obj 304 11 inlet;
#X obj 345 12 inlet;
#X connect 0 0 11 0;
#X connect 1 0 2 0;
#X connect 3 0 4 0;
#X connect 3 0 5 0;
#X connect 5 0 7 0;
#X connect 5 0 8 0;
#X connect 6 0 5 1;
#X connect 7 0 1 0;
#X connect 8 0 9 0;
#X connect 8 0 12 0;
#X connect 9 0 0 0;
#X connect 9 0 17 0;
#X connect 10 0 9 1;
#X connect 11 1 1 1;
#X connect 12 0 11 1;
#X connect 13 0 12 1;
#X connect 14 0 11 0;
#X connect 15 0 17 1;
#X connect 16 0 1 1;
#X connect 17 0 16 0;
#X connect 18 0 6 0;
#X connect 19 0 10 0;
#X connect 20 0 13 0;
#X connect 21 0 15 0;
#X restore 69 197 pd kick-synth;
#X floatatom 26 45 5 0 0 0 - - -, f 5;
#X obj 25 74 bng 15 250 50 0 empty empty empty 17 7 0 10 -262144 -1
-1;
#X obj 83 115 r kick-decay;
#X obj 94 135 r kick-pitch;
#X obj 115 155 r kick-filter;
#X obj 133 175 r kick-sine;
#X msg 265 107 \; kick-decay 250 \; kick-pitch 1 \; kick-filter 1.5
\; kick-sine 1 \;;
#X connect 1 0 4 0;
#X connect 1 0 6 0;
#X connect 2 0 1 0;
#X connect 2 0 5 0;
#X connect 4 0 0 0;
#X connect 7 0 4 1;
#X connect 8 0 4 2;
#X connect 9 0 4 3;
#X connect 10 0 4 4;
