#N canvas 1180 614 450 300 10;
#X obj 248 213 line;
#X msg 285 168 0 75;
#X obj 144 238 *~ 0;
#X msg 232 168 0.1 75;
#X obj 284 143 del 75;
#X obj 77 158 line;
#X msg 114 113 0 75;
#X obj 113 88 del 75;
#X msg 61 113 440;
#X obj 102 205 osc~;
#X obj 144 6 inlet;
#X obj 145 272 outlet~;
#X obj 144 28 bng 15 250 50 0 empty empty empty 17 7 0 10 -262144 -1
-1;
#X connect 0 0 2 1;
#X connect 1 0 0 0;
#X connect 2 0 11 0;
#X connect 3 0 0 0;
#X connect 4 0 1 0;
#X connect 5 0 9 0;
#X connect 6 0 5 0;
#X connect 7 0 6 0;
#X connect 8 0 5 0;
#X connect 9 0 2 0;
#X connect 10 0 12 0;
#X connect 12 0 7 0;
#X connect 12 0 8 0;
#X connect 12 0 3 0;
#X connect 12 0 4 0;
