#N canvas 692 251 960 469 12;
#X obj 52 464 dac~;
#X obj 733 136 seq;
#X obj 734 164 midiparse;
#X obj 51 232 mtof;
#X obj 229 270 / 127;
#N canvas 1164 412 450 300 monophony 0;
#X obj 43 19 inlet note;
#X obj 125 18 inlet velocity;
#X obj 48 147 stripnote;
#X obj 48 232 outlet;
#X obj 146 82 t b f;
#X obj 146 107 f;
#X obj 146 132 sel 0;
#X obj 146 157 f;
#X obj 146 182 sel -1;
#X msg 146 207 0;
#X obj 146 232 outlet;
#X floatatom 48 187 5 0 0 0 - - -, f 5;
#X connect 0 0 2 0;
#X connect 0 0 4 0;
#X connect 1 0 2 1;
#X connect 1 0 5 1;
#X connect 2 0 8 1;
#X connect 2 0 11 0;
#X connect 4 0 5 0;
#X connect 4 1 7 1;
#X connect 5 0 6 0;
#X connect 6 0 7 0;
#X connect 6 1 10 0;
#X connect 7 0 8 0;
#X connect 8 0 9 0;
#X connect 9 0 10 0;
#X connect 11 0 3 0;
#X restore 50 183 pd monophony;
#X obj 52 344 *~;
#X obj 52 268 square-wave~;
#X obj 53 148 unpack f f;
#X obj 53 113 sel-instrument 1;
#X obj 289 230 mtof;
#N canvas 1164 412 450 300 monophony 0;
#X obj 43 19 inlet note;
#X obj 125 18 inlet velocity;
#X obj 48 147 stripnote;
#X obj 48 232 outlet;
#X obj 146 82 t b f;
#X obj 146 107 f;
#X obj 146 132 sel 0;
#X obj 146 157 f;
#X obj 146 182 sel -1;
#X msg 146 207 0;
#X obj 146 232 outlet;
#X floatatom 48 187 5 0 0 0 - - -, f 5;
#X connect 0 0 2 0;
#X connect 0 0 4 0;
#X connect 1 0 2 1;
#X connect 1 0 5 1;
#X connect 2 0 8 1;
#X connect 2 0 11 0;
#X connect 4 0 5 0;
#X connect 4 1 7 1;
#X connect 5 0 6 0;
#X connect 6 0 7 0;
#X connect 6 1 10 0;
#X connect 7 0 8 0;
#X connect 8 0 9 0;
#X connect 9 0 10 0;
#X connect 11 0 3 0;
#X restore 288 181 pd monophony;
#X obj 290 342 *~;
#X obj 291 146 unpack f f;
#X obj 291 111 sel-instrument 2;
#X obj 115 360 vsl 15 30 0 1 0 0 empty empty empty 0 -9 0 10 -262144
-1 -1 2100 1;
#X obj 346 358 vsl 15 30 0 1 0 0 empty empty empty 0 -9 0 10 -262144
-1 -1 2400 1;
#X obj 647 163 notein;
#X obj 647 232 pack f f;
#X obj 772 293 s chan;
#X obj 654 289 s notes;
#X obj 52 52 r notes;
#X obj 174 53 r chan;
#X msg 653 87 read dodger.mid;
#X obj 807 101 bng 15 250 50 0 empty empty empty 17 7 0 10 -262144
-1 -1;
#X obj 648 37 r loadmusic;
#X msg 606 88 stop;
#X obj 781 61 r music;
#X floatatom 603 196 5 0 0 0 - - -, f 5;
#X floatatom 655 200 5 0 0 0 - - -, f 5;
#X floatatom 710 200 5 0 0 0 - - -, f 5;
#X obj 659 347 unpack f f;
#X obj 53 425 *~ 1;
#X floatatom 659 372 5 0 0 0 - - -, f 5;
#X floatatom 726 371 5 0 0 0 - - -, f 5;
#X obj 563 303 ctlin;
#X obj 563 388 spigot;
#X obj 586 331 sel 7;
#X floatatom 563 413 5 0 0 0 - - -, f 5;
#X obj 563 439 / 127;
#X obj 263 144 bng 15 250 50 0 empty empty empty 17 7 0 10 -262144
-1 -1;
#X floatatom 640 321 5 0 0 0 - - -, f 5;
#X msg 581 361 1;
#X msg 614 362 0;
#X obj 30 138 bng 15 250 50 0 empty empty empty 17 7 0 10 -262144 -1
-1;
#X obj 290 266 triangle-wave~;
#X obj 807 121 spigot;
#X msg 491 105 bang;
#X obj 880 103 tgl 15 0 empty empty empty 17 7 0 10 -262144 -1 -1 0
1;
#X obj 52 316 *~;
#X obj 159 269 my-adsr~;
#X obj 229 245 sel 0;
#X obj 469 267 / 127;
#X obj 399 266 my-adsr~;
#X obj 469 242 sel 0;
#X obj 290 317 *~;
#X msg 159 199 0 500 1 0;
#X msg 409 199 10 100 0 0;
#X obj 176 154 loadbang;
#X obj 52 369 *~ 0.2;
#X obj 290 367 *~ 0.9;
#X obj 843 61 r musicloop;
#X connect 1 0 2 0;
#X connect 1 1 24 0;
#X connect 2 0 20 0;
#X connect 2 2 31 0;
#X connect 2 6 19 0;
#X connect 3 0 7 0;
#X connect 4 0 6 1;
#X connect 5 0 3 0;
#X connect 5 1 51 0;
#X connect 5 1 50 0;
#X connect 6 0 59 0;
#X connect 7 0 49 0;
#X connect 8 0 5 0;
#X connect 8 1 5 1;
#X connect 9 0 8 0;
#X connect 9 0 44 0;
#X connect 10 0 45 0;
#X connect 11 0 10 0;
#X connect 11 1 54 0;
#X connect 11 1 53 0;
#X connect 12 0 60 0;
#X connect 13 0 11 0;
#X connect 13 1 11 1;
#X connect 14 0 13 0;
#X connect 14 0 40 0;
#X connect 15 0 59 1;
#X connect 16 0 60 1;
#X connect 17 0 18 0;
#X connect 17 0 28 0;
#X connect 17 1 18 1;
#X connect 17 1 29 0;
#X connect 17 2 19 0;
#X connect 17 2 30 0;
#X connect 18 0 20 0;
#X connect 21 0 9 0;
#X connect 21 0 14 0;
#X connect 22 0 9 1;
#X connect 22 0 14 1;
#X connect 23 0 1 0;
#X connect 24 0 46 0;
#X connect 25 0 23 0;
#X connect 26 0 1 0;
#X connect 27 0 1 0;
#X connect 31 0 33 0;
#X connect 31 1 34 0;
#X connect 32 0 0 0;
#X connect 32 0 0 1;
#X connect 33 0 36 0;
#X connect 34 0 37 0;
#X connect 35 0 36 0;
#X connect 35 1 37 0;
#X connect 35 2 41 0;
#X connect 36 0 38 0;
#X connect 37 0 42 0;
#X connect 37 1 43 0;
#X connect 38 0 39 0;
#X connect 39 0 32 1;
#X connect 42 0 36 1;
#X connect 43 0 36 1;
#X connect 45 0 55 0;
#X connect 46 0 1 0;
#X connect 47 0 1 0;
#X connect 48 0 46 1;
#X connect 49 0 6 0;
#X connect 50 0 49 1;
#X connect 51 1 4 0;
#X connect 52 0 12 1;
#X connect 53 0 55 1;
#X connect 54 1 52 0;
#X connect 55 0 12 0;
#X connect 56 0 50 0;
#X connect 57 0 53 0;
#X connect 58 0 56 0;
#X connect 58 0 57 0;
#X connect 59 0 32 0;
#X connect 60 0 32 0;
#X connect 61 0 46 1;
