#N canvas 960 524 960 469 12;
#X obj 52 464 dac~;
#X obj 833 160 seq;
#X obj 834 188 midiparse;
#X obj 51 252 mtof;
#X obj 149 250 / 127;
#N canvas 664 410 450 300 notein_monophonic 0;
#X obj 42 14 notein;
#X obj 42 109 stripnote;
#X obj 42 194 outlet;
#X obj 140 44 t b f;
#X obj 140 69 f;
#X obj 140 94 sel 0;
#X obj 140 119 f;
#X obj 140 144 sel -1;
#X msg 140 169 0;
#X obj 140 194 outlet;
#X obj 200 194 outlet;
#X floatatom 42 149 5 0 0 0 - - -, f 5;
#X text 16 236 Does not send velocity if it 0 \, unless it is the same
as the last note pressed.;
#X connect 0 0 1 0;
#X connect 0 0 3 0;
#X connect 0 1 1 1;
#X connect 0 1 4 1;
#X connect 0 2 10 0;
#X connect 1 0 7 1;
#X connect 1 0 11 0;
#X connect 3 0 4 0;
#X connect 3 1 6 1;
#X connect 4 0 5 0;
#X connect 5 0 6 0;
#X connect 5 1 9 0;
#X connect 6 0 7 0;
#X connect 7 0 8 0;
#X connect 8 0 9 0;
#X connect 11 0 2 0;
#X restore 288 55 pd notein_monophonic;
#N canvas 1164 412 450 300 monophony 0;
#X obj 43 19 inlet note;
#X obj 125 18 inlet velocity;
#X obj 48 147 stripnote;
#X obj 48 232 outlet;
#X obj 146 82 t b f;
#X obj 146 107 f;
#X obj 146 132 sel 0;
#X obj 146 157 f;
#X obj 146 182 sel -1;
#X msg 146 207 0;
#X obj 146 232 outlet;
#X floatatom 48 187 5 0 0 0 - - -, f 5;
#X connect 0 0 2 0;
#X connect 0 0 4 0;
#X connect 1 0 2 1;
#X connect 1 0 5 1;
#X connect 2 0 8 1;
#X connect 2 0 11 0;
#X connect 4 0 5 0;
#X connect 4 1 7 1;
#X connect 5 0 6 0;
#X connect 6 0 7 0;
#X connect 6 1 10 0;
#X connect 7 0 8 0;
#X connect 8 0 9 0;
#X connect 9 0 10 0;
#X connect 11 0 3 0;
#X restore 50 203 pd monophony;
#X obj 149 300 line~;
#X obj 52 334 *~;
#X msg 149 275 \$1 10;
#X obj 52 288 square-wave~;
#X obj 52 359 *~ 0.2;
#X obj 53 168 unpack f f;
#X obj 53 133 sel-instrument 1;
#N canvas 1164 412 450 300 monophony 0;
#X obj 43 19 inlet note;
#X obj 125 18 inlet velocity;
#X obj 48 147 stripnote;
#X obj 48 232 outlet;
#X obj 146 82 t b f;
#X obj 146 107 f;
#X obj 146 132 sel 0;
#X obj 146 157 f;
#X obj 146 182 sel -1;
#X msg 146 207 0;
#X obj 146 232 outlet;
#X floatatom 48 187 5 0 0 0 - - -, f 5;
#X connect 0 0 2 0;
#X connect 0 0 4 0;
#X connect 1 0 2 1;
#X connect 1 0 5 1;
#X connect 2 0 8 1;
#X connect 2 0 11 0;
#X connect 4 0 5 0;
#X connect 4 1 7 1;
#X connect 5 0 6 0;
#X connect 6 0 7 0;
#X connect 6 1 10 0;
#X connect 7 0 8 0;
#X connect 8 0 9 0;
#X connect 9 0 10 0;
#X connect 11 0 3 0;
#X restore 565 207 pd monophony;
#X obj 568 172 unpack f f;
#X obj 568 137 sel-instrument 4;
#X obj 209 250 mtof;
#X obj 307 248 / 127;
#N canvas 1164 412 450 300 monophony 0;
#X obj 43 19 inlet note;
#X obj 125 18 inlet velocity;
#X obj 48 147 stripnote;
#X obj 48 232 outlet;
#X obj 146 82 t b f;
#X obj 146 107 f;
#X obj 146 132 sel 0;
#X obj 146 157 f;
#X obj 146 182 sel -1;
#X msg 146 207 0;
#X obj 146 232 outlet;
#X floatatom 48 187 5 0 0 0 - - -, f 5;
#X connect 0 0 2 0;
#X connect 0 0 4 0;
#X connect 1 0 2 1;
#X connect 1 0 5 1;
#X connect 2 0 8 1;
#X connect 2 0 11 0;
#X connect 4 0 5 0;
#X connect 4 1 7 1;
#X connect 5 0 6 0;
#X connect 6 0 7 0;
#X connect 6 1 10 0;
#X connect 7 0 8 0;
#X connect 8 0 9 0;
#X connect 9 0 10 0;
#X connect 11 0 3 0;
#X restore 208 201 pd monophony;
#X obj 307 298 line~;
#X obj 210 332 *~;
#X msg 307 273 \$1 10;
#X obj 210 286 square-wave~;
#X obj 210 357 *~ 0.2;
#X obj 211 166 unpack f f;
#X obj 393 250 mtof;
#X obj 509 249 / 127;
#N canvas 1164 412 450 300 monophony 0;
#X obj 43 19 inlet note;
#X obj 125 18 inlet velocity;
#X obj 48 147 stripnote;
#X obj 48 232 outlet;
#X obj 146 82 t b f;
#X obj 146 107 f;
#X obj 146 132 sel 0;
#X obj 146 157 f;
#X obj 146 182 sel -1;
#X msg 146 207 0;
#X obj 146 232 outlet;
#X floatatom 48 187 5 0 0 0 - - -, f 5;
#X connect 0 0 2 0;
#X connect 0 0 4 0;
#X connect 1 0 2 1;
#X connect 1 0 5 1;
#X connect 2 0 8 1;
#X connect 2 0 11 0;
#X connect 4 0 5 0;
#X connect 4 1 7 1;
#X connect 5 0 6 0;
#X connect 6 0 7 0;
#X connect 6 1 10 0;
#X connect 7 0 8 0;
#X connect 8 0 9 0;
#X connect 9 0 10 0;
#X connect 11 0 3 0;
#X restore 392 201 pd monophony;
#X obj 509 299 line~;
#X obj 394 332 *~;
#X msg 509 274 \$1 10;
#X obj 395 166 unpack f f;
#X obj 211 131 sel-instrument 2;
#X obj 395 131 sel-instrument 3;
#X obj 394 286 triangle-wave~;
#X obj 115 350 vsl 15 30 0 1 0 0 empty empty empty 0 -9 0 10 -262144
-1 -1 0 1;
#X obj 266 348 vsl 15 30 0 1 0 0 empty empty empty 0 -9 0 10 -262144
-1 -1 0 1;
#X obj 449 350 vsl 15 30 0 1 0 0 empty empty empty 0 -9 0 10 -262144
-1 -1 0 1;
#X obj 627 355 vsl 15 30 0 1 0 0 empty empty empty 0 -9 0 10 -262144
-1 -1 1000 1;
#X obj 567 363 *~ 0.1;
#X obj 394 357 *~ 0.3;
#X obj 747 187 notein;
#X obj 747 256 pack f f;
#X obj 872 317 s chan;
#X obj 754 313 s notes;
#X obj 52 72 r notes;
#X obj 174 73 r chan;
#X msg 753 111 read dodger.mid;
#X obj 907 158 bng 15 250 50 0 empty empty empty 17 7 0 10 -262144
-1 -1;
#X obj 748 61 r loadmusic;
#X msg 706 112 stop;
#X obj 872 108 r music;
#X floatatom 703 220 5 0 0 0 - - -, f 5;
#X floatatom 755 224 5 0 0 0 - - -, f 5;
#X obj 567 268 drumkit~;
#X floatatom 810 224 5 0 0 0 - - -, f 5;
#X connect 1 0 2 0;
#X connect 1 1 49 0;
#X connect 2 0 45 0;
#X connect 2 6 44 0;
#X connect 3 0 10 0;
#X connect 4 0 9 0;
#X connect 6 0 3 0;
#X connect 6 1 4 0;
#X connect 7 0 8 1;
#X connect 8 0 11 0;
#X connect 9 0 7 0;
#X connect 10 0 8 0;
#X connect 11 0 0 0;
#X connect 11 0 0 1;
#X connect 12 0 6 0;
#X connect 12 1 6 1;
#X connect 13 0 12 0;
#X connect 14 0 55 0;
#X connect 14 1 55 1;
#X connect 15 0 14 0;
#X connect 15 1 14 1;
#X connect 16 0 15 0;
#X connect 17 0 23 0;
#X connect 18 0 22 0;
#X connect 19 0 17 0;
#X connect 19 1 18 0;
#X connect 20 0 21 1;
#X connect 21 0 24 0;
#X connect 22 0 20 0;
#X connect 23 0 21 0;
#X connect 24 0 0 0;
#X connect 24 0 0 1;
#X connect 25 0 19 0;
#X connect 25 1 19 1;
#X connect 26 0 35 0;
#X connect 27 0 31 0;
#X connect 28 0 26 0;
#X connect 28 1 27 0;
#X connect 29 0 30 1;
#X connect 30 0 41 0;
#X connect 31 0 29 0;
#X connect 32 0 28 0;
#X connect 32 1 28 1;
#X connect 33 0 25 0;
#X connect 34 0 32 0;
#X connect 35 0 30 0;
#X connect 36 0 11 1;
#X connect 37 0 24 1;
#X connect 38 0 41 1;
#X connect 39 0 40 1;
#X connect 40 0 0 0;
#X connect 40 0 0 1;
#X connect 41 0 0 0;
#X connect 41 0 0 1;
#X connect 42 0 43 0;
#X connect 42 0 53 0;
#X connect 42 1 43 1;
#X connect 42 1 54 0;
#X connect 42 2 44 0;
#X connect 42 2 56 0;
#X connect 43 0 45 0;
#X connect 46 0 13 0;
#X connect 46 0 34 0;
#X connect 46 0 33 0;
#X connect 46 0 16 0;
#X connect 47 0 13 1;
#X connect 47 0 34 1;
#X connect 47 0 33 1;
#X connect 47 0 16 1;
#X connect 48 0 1 0;
#X connect 49 0 1 0;
#X connect 50 0 48 0;
#X connect 51 0 1 0;
#X connect 52 0 1 0;
#X connect 55 0 40 0;
