#N canvas 1255 315 527 500 12;
#X obj 97 404 dac~;
#X obj 115 335 r vol;
#X obj 96 276 mtof;
#X obj 272 18 table sticky 16;
#X obj 96 221 tabread sticky;
#X obj 95 158 f;
#X obj 131 158 + 1;
#X obj 95 85 metro 100;
#X obj 18 21 bng 15 250 50 0 empty empty empty 17 7 0 10 -262144 -1
-1;
#X obj 95 183 % 16;
#X floatatom 158 199 5 0 0 0 - - -;
#X floatatom 136 363 5 0 0 0 - - -;
#X floatatom 145 276 5 0 0 0 - - -;
#X obj 194 18 loadbang;
#X msg 31 51 stop;
#X obj 98 369 *~;
#X obj 95 21 bng 15 250 50 0 empty empty empty 17 7 0 10 -262144 -1
-1;
#X obj 113 124 r pos;
#X msg 18 86 \; vol 0 \; pos 0 \;;
#X msg 233 112 \; sticky 0 60 62 64 65 67 69 72 \; vol 0.5 \;;
#X obj 96 311 phasor~ 440;
#X connect 1 0 11 0;
#X connect 1 0 15 1;
#X connect 2 0 20 0;
#X connect 4 0 2 0;
#X connect 4 0 12 0;
#X connect 5 0 6 0;
#X connect 5 0 9 0;
#X connect 6 0 5 1;
#X connect 7 0 5 0;
#X connect 8 0 18 0;
#X connect 8 0 14 0;
#X connect 9 0 4 0;
#X connect 9 0 10 0;
#X connect 13 0 7 0;
#X connect 13 0 19 0;
#X connect 14 0 7 0;
#X connect 15 0 0 0;
#X connect 15 0 0 1;
#X connect 16 0 7 0;
#X connect 16 0 19 0;
#X connect 17 0 5 1;
#X connect 20 0 15 0;
