#N canvas 124 434 640 457 10;
#X obj 449 67 vsl 15 128 0 10000 0 0 \$0-a empty attack 0 -9 0 10 -262144
-1 -1 0 1;
#X obj 128 50 inlet;
#X obj 178 132 sel 0;
#X obj 205 154 t b b b;
#X obj 224 270 pack 1 0;
#X obj 259 42 r \$0-a;
#X obj 187 346 line~;
#X obj 187 271 0;
#X obj 187 398 outlet~;
#X text 229 250 Attack;
#X text 292 250 Decay;
#X obj 287 270 pack 0 0 0;
#X obj 309 42 r \$0-d;
#X obj 359 42 r \$0-s;
#X obj 211 42 r \$0-r;
#X obj 287 186 + 1;
#X obj 287 218 delay;
#X obj 287 292 route 0;
#X msg 178 174 stop;
#X obj 127 247 pack 0 0;
#X obj 489 67 vsl 15 128 0 10000 0 0 \$0-d empty decay 0 -9 0 10 -262144
-1 -1 0 1;
#X obj 529 67 vsl 15 128 0 1 0 0 \$0-s empty sustain 0 -9 0 10 -262144
-1 -1 0 1;
#X obj 569 67 vsl 15 128 0 10000 0 0 \$0-r empty sustain 0 -9 0 10
-262144 -1 -1 0 1;
#X obj 18 124 list trim;
#X obj 18 146 unpack f f f f;
#X obj 18 179 s \$0-a;
#X obj 38 209 s \$0-d;
#X obj 58 239 s \$0-s;
#X obj 78 269 s \$0-r;
#X floatatom 221 74 5 0 0 0 - - -, f 5;
#X floatatom 269 74 5 0 0 0 - - -, f 5;
#X floatatom 319 74 5 0 0 0 - - -, f 5;
#X floatatom 369 74 5 0 0 0 - - -, f 5;
#X obj 128 94 bng 15 250 50 0 empty empty empty 17 7 0 10 -262144 -1
-1;
#X obj 164 101 bng 15 250 50 0 empty empty empty 17 7 0 10 -262144
-1 -1;
#X obj 128 72 route list;
#X connect 1 0 35 0;
#X connect 2 0 18 0;
#X connect 2 0 19 0;
#X connect 2 1 3 0;
#X connect 3 0 16 0;
#X connect 3 1 4 0;
#X connect 3 2 7 0;
#X connect 4 0 6 0;
#X connect 5 0 4 1;
#X connect 5 0 15 0;
#X connect 5 0 30 0;
#X connect 6 0 8 0;
#X connect 7 0 6 0;
#X connect 11 0 17 0;
#X connect 12 0 11 2;
#X connect 12 0 31 0;
#X connect 13 0 11 1;
#X connect 13 0 32 0;
#X connect 14 0 19 1;
#X connect 14 0 29 0;
#X connect 15 0 16 1;
#X connect 16 0 11 0;
#X connect 17 0 6 0;
#X connect 18 0 16 0;
#X connect 19 0 6 0;
#X connect 23 0 24 0;
#X connect 24 0 25 0;
#X connect 24 1 26 0;
#X connect 24 2 27 0;
#X connect 24 3 28 0;
#X connect 35 0 33 0;
#X connect 35 0 23 0;
#X connect 35 1 2 0;
#X connect 35 1 34 0;
