#N canvas 1470 42 450 300 10;
#X obj 50 67 phasor~;
#X obj 50 89 expr~ ($v1 * 2) - 1;
#X obj 50 161 outlet~;
#X obj 50 15 inlet freq;
#X obj 127 15 inlet phase;
#X connect 0 0 1 0;
#X connect 1 0 2 0;
#X connect 3 0 0 0;
#X connect 4 0 0 1;
