#N canvas 874 628 450 300 10;
#X obj 33 35 inlet note;
#X msg 139 92 1;
#X msg 171 92 0;
#X obj 139 67 sel \$1;
#X obj 139 35 inlet channel;
#X obj 35 165 spigot;
#X obj 35 187 outlet;
#X connect 0 0 5 0;
#X connect 1 0 5 1;
#X connect 2 0 5 1;
#X connect 3 0 1 0;
#X connect 3 1 2 0;
#X connect 4 0 3 0;
#X connect 5 0 6 0;
