#N canvas 807 185 960 465 12;
#N canvas 1277 356 450 300 sine 0;
#X floatatom 37 62 5 0 0 0 - - -;
#X obj 37 136 osc~;
#X obj 37 161 outlet~;
#X obj 122 37 inlet phase;
#X floatatom 122 62 5 0 0 0 - - -;
#X obj 37 37 inlet freq;
#X obj 37 86 pack f 50;
#X obj 37 111 line~;
#X connect 0 0 6 0;
#X connect 1 0 2 0;
#X connect 3 0 4 0;
#X connect 4 0 1 1;
#X connect 5 0 0 0;
#X connect 6 0 7 0;
#X connect 7 0 1 0;
#X restore 584 167 pd sine;
#N canvas 1408 305 299 389 triangle 0;
#X floatatom 35 44 5 0 0 0 - - -;
#X obj 35 123 phasor~;
#X obj 35 148 clip~ 0 0.5;
#X obj 35 233 +~;
#X obj 35 258 *~ 4;
#X obj 35 283 -~ 3;
#X obj 35 333 outlet~;
#X obj 135 19 inlet phase;
#X obj 134 123 phasor~;
#X obj 134 148 *~ -1;
#X obj 134 173 +~ 1;
#X obj 134 198 clip~ 0 0.5;
#X obj 35 19 inlet freq;
#X obj 35 71 pack f 50;
#X obj 35 96 line~;
#X connect 0 0 8 0;
#X connect 0 0 13 0;
#X connect 1 0 2 0;
#X connect 2 0 3 0;
#X connect 3 0 4 0;
#X connect 4 0 5 0;
#X connect 5 0 6 0;
#X connect 7 0 8 1;
#X connect 7 0 1 1;
#X connect 8 0 9 0;
#X connect 9 0 10 0;
#X connect 10 0 11 0;
#X connect 11 0 3 1;
#X connect 12 0 0 0;
#X connect 13 0 14 0;
#X connect 14 0 1 0;
#X connect 14 0 8 0;
#X restore 674 167 pd triangle;
#N canvas 1396 300 450 300 pulse 0;
#X floatatom 13 41 5 0 0 0 - - -;
#X obj 13 120 phasor~;
#X obj 13 155 expr~ $v1 > $v2;
#X obj 13 180 *~ 2;
#X obj 13 205 -~ 1;
#X obj 13 255 outlet~;
#X obj 92 16 inlet phase;
#X obj 179 16 inlet pwm;
#X floatatom 92 41 5 0 0 0 - - -;
#X obj 119 101 pack f 50;
#X obj 119 126 line~;
#X obj 13 16 inlet freq;
#X obj 13 68 pack f 50;
#X obj 13 93 line~;
#X connect 0 0 12 0;
#X connect 1 0 2 0;
#X connect 2 0 3 0;
#X connect 3 0 4 0;
#X connect 4 0 5 0;
#X connect 6 0 8 0;
#X connect 7 0 9 0;
#X connect 8 0 1 1;
#X connect 9 0 10 0;
#X connect 10 0 2 1;
#X connect 11 0 0 0;
#X connect 12 0 13 0;
#X connect 13 0 1 0;
#X restore 765 167 pd pulse;
#N canvas 1213 586 334 308 saw 0;
#X obj 35 19 inlet note;
#X floatatom 35 44 5 0 0 0 - - -;
#X obj 35 123 phasor~;
#X obj 35 253 outlet~;
#X obj 135 19 inlet phase;
#X obj 35 148 *~ -1;
#X obj 35 173 *~ 2;
#X obj 35 198 +~ 1;
#X obj 35 70 pack f 50;
#X obj 35 95 line~;
#X connect 0 0 1 0;
#X connect 1 0 8 0;
#X connect 2 0 5 0;
#X connect 4 0 2 1;
#X connect 5 0 6 0;
#X connect 6 0 7 0;
#X connect 7 0 3 0;
#X connect 8 0 9 0;
#X connect 9 0 2 0;
#X restore 858 167 pd saw;
#X obj 75 212 noise~;
#X obj 75 311 dac~;
#X obj 144 227 line;
#X msg 181 182 0 75;
#X obj 119 98 metro 150;
#X obj 119 51 r running;
#X obj 75 256 *~ 0;
#X msg 128 182 0.1 75;
#X obj 180 157 del 75;
#X connect 4 0 10 0;
#X connect 6 0 10 1;
#X connect 7 0 6 0;
#X connect 8 0 11 0;
#X connect 8 0 12 0;
#X connect 9 0 8 0;
#X connect 10 0 5 0;
#X connect 10 0 5 1;
#X connect 11 0 6 0;
#X connect 12 0 7 0;
