#N canvas 1470 566 450 300 10;
#X obj 56 168 phasor~;
#X obj 106 30 inlet freq;
#X obj 185 166 phasor~;
#X obj 185 140 * -1;
#X obj 130 217 +~, f 2;
#X obj 130 274 outlet~;
#X floatatom 110 125 5 0 0 0 - - -, f 5;
#X obj 130 239 -~ 1;
#X obj 255 33 loadbang;
#X obj 255 55 bng 15 250 50 0 empty empty empty 17 7 0 10 -262144 -1
-1;
#X msg 219 75 0;
#X msg 255 75 0.5;
#X connect 0 0 4 0;
#X connect 1 0 0 0;
#X connect 1 0 3 0;
#X connect 1 0 6 0;
#X connect 2 0 4 1;
#X connect 3 0 2 0;
#X connect 4 0 7 0;
#X connect 7 0 5 0;
#X connect 8 0 9 0;
#X connect 9 0 10 0;
#X connect 9 0 11 0;
#X connect 10 0 0 1;
#X connect 11 0 3 1;
