#N canvas 1470 397 450 300 10;
#X obj 46 117 phasor~;
#X obj 46 139 expr~ ($v1 * 2) - 1;
#X obj 96 32 inlet freq;
#X obj 173 32 inlet phase;
#X obj 175 115 phasor~;
#X obj 175 137 expr~ ($v1 * 2) - 1;
#X obj 175 89 * -1;
#X obj 46 161 clip~ 0 1;
#X obj 175 159 clip~ 0 1;
#X obj 120 201 +~, f 2;
#X obj 120 223 outlet~;
#X floatatom 100 74 5 0 0 0 - - -, f 5;
#X connect 0 0 1 0;
#X connect 1 0 7 0;
#X connect 2 0 0 0;
#X connect 2 0 6 0;
#X connect 2 0 11 0;
#X connect 3 0 0 1;
#X connect 3 0 4 1;
#X connect 4 0 5 0;
#X connect 5 0 8 0;
#X connect 6 0 4 0;
#X connect 7 0 9 0;
#X connect 8 0 9 1;
#X connect 9 0 10 0;
