#N canvas 1470 693 450 300 10;
#X obj 61 17 inlet freq;
#X obj 61 49 phasor~;
#X obj 61 71 -~ 0.99;
#X obj 61 93 clip~ 0 1;
#X obj 61 115 *~ 100;
#X obj 61 147 outlet~;
#X connect 0 0 1 0;
#X connect 1 0 2 0;
#X connect 2 0 3 0;
#X connect 3 0 4 0;
#X connect 4 0 5 0;
