#N canvas 1004 557 450 300 10;
#X obj 106 83 phasor~;
#X obj 130 274 outlet~;
#X floatatom 33 68 5 0 0 0 - - -, f 5;
#X obj 106 105 expr~ $v1 > 0.5;
#X obj 106 127 expr~ ($v1 * 2) -1;
#X obj 106 30 inlet~ freq;
#X connect 0 0 3 0;
#X connect 3 0 4 0;
#X connect 4 0 1 0;
#X connect 5 0 0 0;
